<svg width="161" height="34" viewBox="0 0 161 34" fill="none" xmlns="http://www.w3.org/2000/svg">
<path d="M50.3998 13.2809C45.6536 13.2809 43.8305 15.7111 42.8431 18.2557H41.3244L42.4633 14.8377V4.927H36.3877V32.8368H42.4633V31.6593L41.3244 28.2417H42.8431C43.8305 30.7863 45.6536 33.2166 50.3998 33.2166C55.9436 33.2166 58.7155 28.6596 58.7155 23.2292C58.7155 17.7989 55.9436 13.2809 50.3998 13.2809ZM47.5516 27.9018C44.2864 27.9018 42.4633 26.4589 42.4633 23.2309C42.4633 20.003 44.2864 18.5987 47.5516 18.5987C50.8168 18.5987 52.6399 20.0035 52.6399 23.2309C52.6399 26.4584 50.8172 27.9018 47.5516 27.9018Z" fill="white"/>
<path d="M60.4252 16.5464V32.8367H66.5004V18.7502L76.2591 18.9784V13.6602L63.6904 13.3566C61.6022 13.3185 60.4252 14.4579 60.4252 16.5464Z" fill="white"/>
<path d="M108.003 13.2809C103.903 13.2809 101.51 15.9783 100.751 19.3942H99.2317L100.371 15.977V13.6607H93.082V20.7613C93.082 26.1536 90.9177 27.9001 87.614 27.9001C84.6896 27.9001 83.6646 26.5728 83.6646 23.0781V13.6585H77.5889V24.0269C77.5889 29.951 80.551 33.2166 85.4496 33.2166C89.5505 33.2166 91.9426 30.5191 92.7022 27.1028H94.2213L93.082 30.5204V32.8368H100.371V25.7361C100.371 20.3439 102.535 18.5965 105.839 18.5965C108.763 18.5965 109.788 19.926 109.788 23.4193V32.8389H115.864V22.4705C115.864 16.5461 112.902 13.2809 108.003 13.2809Z" fill="white"/>
<path d="M127.674 18.5969C130.104 18.5969 131.661 19.8879 131.889 21.5971H137.965C137.699 16.1286 132.912 13.2809 127.674 13.2809C121.561 13.2809 117.194 16.85 117.194 23.2292C117.194 29.647 121.561 33.2166 127.674 33.2166C132.914 33.2166 137.699 30.3684 137.965 24.9004H131.889C131.661 26.6092 130.104 27.9001 127.674 27.9001C124.788 27.9001 123.27 26.1913 123.27 23.2292C123.27 20.3057 124.788 18.5969 127.674 18.5969Z" fill="white"/>
<path d="M153.002 13.2809C148.902 13.2809 146.509 15.9783 145.75 19.3942H144.231L145.37 15.977V4.927H139.294V32.8368H145.37V25.7361C145.37 20.3438 147.534 18.5965 150.838 18.5965C153.762 18.5965 154.787 19.926 154.787 23.4193V32.8389H160.863V22.4705C160.863 16.546 157.901 13.2809 153.002 13.2809Z" fill="white"/>
<path d="M28.9287 14.1308C28.853 13.7497 28.9214 13.3541 29.1205 13.0206C30.7809 11.1795 30.7476 9.08146 30.1511 6.88327C29.5491 4.66924 28.0625 3.26016 25.9889 2.41497C23.8273 1.52614 21.5356 0.994292 19.2034 0.840187C17.9164 0.75798 16.6233 0.696748 15.3315 0.681763C14.0402 0.696748 12.7472 0.75798 11.4601 0.840187C9.12791 0.994179 6.83621 1.52603 4.67458 2.41497C2.60056 3.26016 1.11401 4.66924 0.512015 6.88327C-0.0874124 9.08017 -0.117401 11.1786 1.54301 13.0206C1.74176 13.3543 1.81007 13.7497 1.73483 14.1308C1.60638 15.1648 1.26386 16.186 1.24844 17.217C1.18807 21.6352 1.20004 26.0547 1.22231 30.4733C1.22873 31.7882 1.87097 32.5109 3.16702 32.6775C4.32606 32.8266 5.49276 32.9085 6.66126 32.9228C9.52695 32.9571 12.3926 32.934 15.2583 32.934H15.4052C18.2709 32.934 21.1366 32.9571 24.0018 32.9228C25.1703 32.9086 26.337 32.8267 27.4961 32.6775C28.7926 32.5109 29.4348 31.7882 29.4412 30.4733C29.463 26.0547 29.4751 21.6352 29.4151 17.217C29.4023 16.1872 29.0554 15.1648 28.9287 14.1308ZM9.08682 19.5158C6.21813 19.5158 6.22455 15.0672 9.08682 15.0672C11.9491 15.0672 11.9495 19.5158 9.08682 19.5158ZM19.7755 24.4045C18.6057 26.9427 15.4656 28.303 12.802 27.5507C12.5267 27.4644 12.2956 27.2745 12.1575 27.0212C12.0194 26.7678 11.9851 26.4708 12.0617 26.1926C12.1384 25.9144 12.3201 25.6769 12.5685 25.5301C12.8169 25.3833 13.1126 25.3386 13.3933 25.4056C13.5307 25.4445 13.669 25.4784 13.809 25.5049L13.8338 25.5088C13.8535 25.5097 13.8731 25.5117 13.8925 25.5148C13.9353 25.5203 13.9743 25.5263 14.0128 25.5289C14.2705 25.5429 14.5288 25.5397 14.7861 25.519H14.8011C14.8511 25.5109 14.9008 25.5032 14.9505 25.4938C15.0903 25.467 15.2291 25.4341 15.3667 25.3953C15.4913 25.3602 15.615 25.3204 15.7366 25.2759C15.7743 25.2621 15.8192 25.2484 15.8607 25.233C15.8744 25.2242 15.8888 25.2163 15.9036 25.2095C16.1502 25.0936 16.3873 24.9585 16.6126 24.8053C16.661 24.7723 16.7081 24.7376 16.7556 24.7038L16.7603 24.6995C16.8588 24.6139 16.9564 24.5313 17.0493 24.4426C17.1517 24.3442 17.2493 24.2406 17.3418 24.1331C17.3624 24.1095 17.3872 24.0843 17.4112 24.0582C17.424 24.0353 17.4383 24.0133 17.454 23.9922C17.6092 23.769 17.744 23.5322 17.8569 23.2849C18.0082 23.0328 18.2521 22.85 18.5364 22.7754C18.8208 22.7009 19.123 22.7405 19.3786 22.8858C19.6268 23.0398 19.8064 23.2833 19.8803 23.5659C19.9541 23.8486 19.9166 24.1488 19.7755 24.4045ZM21.5763 19.6472C18.7076 19.6472 18.714 15.1986 21.5763 15.1986C24.4386 15.1986 24.439 19.6472 21.5763 19.6472Z" fill="#F74C00"/>
</svg>
